<svg width="24" height="22" viewBox="0 0 24 22" fill="none" xmlns="http://www.w3.org/2000/svg">
<path d="M16.3785 0.652654C16.8522 0.23476 17.4944 0 18.1641 0C18.8338 0 19.4761 0.23476 19.9497 0.652654L23.0752 3.41118C23.3098 3.61819 23.4959 3.86396 23.6229 4.13447C23.7499 4.40498 23.8153 4.69492 23.8153 4.98772C23.8153 5.28053 23.7499 5.57047 23.6229 5.84098C23.4959 6.11148 23.3098 6.35726 23.0752 6.56426L8.05667 19.8197L0 21.0189L1.36004 13.9081L16.3785 0.652654ZM16.0894 4.05985L19.2148 6.81838L21.2896 4.98717L18.1641 2.22975L16.0894 4.05985ZM17.4279 8.39548L14.3038 5.63695L3.71642 14.9814L3.08123 18.2994L6.84059 17.7399L17.4292 8.39437L17.4279 8.39548Z" fill="black"/>
</svg>
