<svg width="23" height="24" viewBox="0 0 23 24" fill="none" xmlns="http://www.w3.org/2000/svg">
<path fill-rule="evenodd" clip-rule="evenodd" d="M22.1315 3.70209L22.4851 3.34854C22.8756 2.95802 22.8756 2.32485 22.4851 1.93433L21.778 1.22722C21.3875 0.836695 20.7543 0.836695 20.3638 1.22722L20.0102 1.58077L12.1626 9.42839C11.7721 9.81891 11.1389 9.81891 10.7484 9.42839L2.90076 1.58077L2.54721 1.22722C2.15669 0.836695 1.52352 0.836695 1.133 1.22722L0.425891 1.93433C0.0353666 2.32485 0.0353665 2.95802 0.425891 3.34854L0.779444 3.70209L8.62706 11.5497C9.01759 11.9402 9.01759 12.5734 8.62706 12.9639L0.779441 20.8115L0.425889 21.1651C0.0353646 21.5556 0.0353645 22.1888 0.425889 22.5793L1.133 23.2864C1.52352 23.6769 2.15668 23.6769 2.54721 23.2864L2.90076 22.9329L10.7484 15.0852C11.1389 14.6947 11.7721 14.6947 12.1626 15.0852L20.0102 22.9329L20.3638 23.2864C20.7543 23.6769 21.3875 23.6769 21.778 23.2864L22.4851 22.5793C22.8756 22.1888 22.8756 21.5556 22.4851 21.1651L22.1315 20.8115L14.2839 12.9639C13.8934 12.5734 13.8934 11.9402 14.2839 11.5497L22.1315 3.70209Z" fill="black"/>
</svg>
