<svg width="34" height="34" viewBox="0 0 34 34" fill="none" xmlns="http://www.w3.org/2000/svg">
<rect width="34" height="34" rx="17" fill="#6653D3"/>
<path fill-rule="evenodd" clip-rule="evenodd" d="M11.5463 15.5228C11.8689 15.2067 12.3919 15.2067 12.7145 15.5228L17.0869 19.8075L21.4593 15.5228C21.7819 15.2067 22.305 15.2067 22.6276 15.5228C22.9502 15.839 22.9502 16.3515 22.6276 16.6677L17.6711 21.5248C17.5161 21.6766 17.306 21.7619 17.0869 21.7619C16.8678 21.7619 16.6577 21.6766 16.5028 21.5248L11.5463 16.6677C11.2237 16.3515 11.2237 15.839 11.5463 15.5228Z" fill="white"/>
<path fill-rule="evenodd" clip-rule="evenodd" d="M17.087 8C17.5432 8 17.913 8.36244 17.913 8.80952V20.9524H16.2609V8.80952C16.2609 8.36244 16.6307 8 17.087 8Z" fill="white"/>
<path fill-rule="evenodd" clip-rule="evenodd" d="M8.82609 18.119C9.28232 18.119 9.65217 18.4815 9.65217 18.9286V23.381H25.3478V18.9286C25.3478 18.4815 25.7177 18.119 26.1739 18.119C26.6301 18.119 27 18.4815 27 18.9286V25H8V18.9286C8 18.4815 8.36985 18.119 8.82609 18.119Z" fill="white"/>
</svg>
